<svg width="44" height="44" viewBox="0 0 44 44" fill="none" xmlns="http://www.w3.org/2000/svg">
  <!-- Simple ear outline for macOS menu bar template icon -->
  <path
    d="M28 10C24.5 7.5 20 6.5 16 7.5C11.5 8.8 8 12.5 7 17C6 21.5 7.5 26 10.5 29.5C12.5 32 14 34 14 37L14 38"
    stroke="black"
    stroke-width="3"
    stroke-linecap="round"
    stroke-linejoin="round"
    fill="none"
  />
  <path
    d="M24 14C21.5 13 19 13.5 17 15C15 16.5 14 19 14.5 21.5C15 24 16.5 26 19 27"
    stroke="black"
    stroke-width="2.5"
    stroke-linecap="round"
    stroke-linejoin="round"
    fill="none"
  />
  <!-- Small sound wave arcs -->
  <path
    d="M31 16C33 19 33 23 31 26"
    stroke="black"
    stroke-width="2"
    stroke-linecap="round"
    fill="none"
  />
  <path
    d="M35 12C38.5 17 38.5 25 35 30"
    stroke="black"
    stroke-width="2"
    stroke-linecap="round"
    fill="none"
  />
</svg>
